<?xml version="1.0" encoding="utf-8"?>
<!-- Generator: Adobe Illustrator 22.1.0, SVG Export Plug-In . SVG Version: 6.00 Build 0)  -->
<svg version="1.1" xmlns="http://www.w3.org/2000/svg" xmlns:xlink="http://www.w3.org/1999/xlink" x="0px" y="0px"
	 viewBox="0 0 878 720.4" style="enable-background:new 0 0 878 720.4;" xml:space="preserve">
<style type="text/css">
	.st0{fill:none;stroke:#0C57FB;stroke-width:2.7916;stroke-miterlimit:10;stroke-dasharray:16.7497;}
	.st1{fill:none;stroke:#0C57FB;stroke-width:2.572;stroke-miterlimit:10;stroke-dasharray:15.4322;}
	.st2{opacity:0.5;fill:#37E0BA;enable-background:new    ;}
	.st3{fill:#E3EAF0;}
	.st4{fill:#FFFFFF;}
	.st5{fill:#F4F7FB;}
	.st6{fill:#DBDBDB;}
	.st7{fill:#FFD15C;}
	.st8{fill:#F8B64C;}
	.st9{fill:#40596B;}
	.st10{fill:#F2F2F2;}
	.st11{fill:#CDD6E0;}
	.st12{fill:#FF7058;}
	.st13{fill:#E6EEFE;}
	.st14{fill:#0C57FB;}
	.st15{fill:#2B2B2B;}
</style>
<g id="a37f41ca-a9f0-4efa-9f9e-7b2dee25605c">
	<title>Design process</title>
	<polyline class="st0" points="233,40.7 772.6,40.7 772.6,142.7 	"/>
	<polyline class="st1" points="104.5,438.4 104.5,626.4 772.6,626.4 772.6,594.4 	"/>
	<rect x="205.5" y="513.4" class="st2" width="9" height="9"/>
	<rect x="453.5" y="58.4" class="st2" width="9" height="9"/>
	<rect x="115.5" y="450.4" class="st2" width="9" height="9"/>
	<rect x="196.5" y="675.4" class="st2" width="9" height="9"/>
	<rect x="421.5" y="711.4" class="st2" width="9" height="9"/>
	<rect x="309.5" y="310.4" class="st2" width="9" height="9"/>
	<rect x="560.5" y="590.4" class="st2" width="9" height="9"/>
	<rect x="628.5" y="99.4" class="st2" width="9" height="9"/>
	<rect x="604.5" y="460.4" class="st2" width="9" height="9"/>
	<rect x="514.5" y="397.4" class="st2" width="9" height="9"/>
	<rect x="748.5" y="257.4" class="st2" width="9" height="9"/>
</g>
<g id="Capa_2">
	<g>
		<path class="st3" d="M672.8,175.2h193.6c4.4,0,8,3.6,8,8v0v362.3c0,4.4-3.6,8-8,8h0H672.8c-4.4,0-8-3.6-8-8V183.2
			C664.9,178.8,668.4,175.2,672.8,175.2L672.8,175.2z"/>
		<path class="st4" d="M681.3,180.3h176.6c7.5,0,13.6,6.1,13.6,13.6v340.7c0,7.5-6.1,13.6-13.6,13.6H681.3
			c-7.5,0-13.6-6.1-13.6-13.6V194C667.7,186.4,673.8,180.3,681.3,180.3z"/>
		<path class="st5" d="M820.8,189.6c-1.2,8.1-8.1,14-16.3,14.1l-70.4,0c-8.2,0-15.1-6-16.3-14.1l-37.3,0c-4.3,0-7.7,3.5-7.7,7.7l0,0
			l0,334c0,4.3,3.5,7.7,7.7,7.7l0,0l178.2,0c4.3,0,7.7-3.5,7.7-7.7l0-334c0-4.3-3.5-7.7-7.7-7.7l0,0L820.8,189.6z"/>
		<path class="st6" d="M748.6,194h42.6c0.8,0,1.4,0.6,1.4,1.4v0c0,0.8-0.6,1.4-1.4,1.4h-42.6c-0.8,0-1.4-0.6-1.4-1.4v0
			C747.2,194.6,747.8,194,748.6,194z"/>
		<circle class="st6" cx="802.3" cy="195.1" r="1.7"/>
		<g>
			<path class="st7" d="M824.3,424.8c0,1.4-0.5,2.5-1.4,3.4c-0.9,0.7-1.8,1.1-3.2,1.1H720c-1.1,0-2.3-0.5-3.2-1.1
				c-0.9-0.9-1.4-2-1.4-3.4v-66.4h108.8V424.8L824.3,424.8z"/>
			<path class="st8" d="M823,428.2c-0.9,0.7-1.8,1.1-3.2,1.1H720c-1.1,0-2.3-0.5-3.2-1.1l53.1-45.6L823,428.2z"/>
			<path class="st9" d="M824.3,358.3l-15.4,11.1l-36,25.8c-1.8,1.4-4.3,1.4-6.1,0l-35.8-25.8l-15.4-11.1l15.4-11.1l33.6-24l2.5-1.8
				c1.8-1.4,4.3-1.4,6.1,0l2.5,1.8l16.1,11.6l7.9,5.7l9.3,6.8L824.3,358.3z"/>
			<path class="st10" d="M808.9,337.3v32.2l-36,25.8c-1.8,1.4-4.3,1.4-6.1,0l-35.8-25.8v-41.7c0-2.5,2-4.5,4.5-4.5h59.2L808.9,337.3
				z"/>
			<path class="st11" d="M794.8,333.6c0,2,1.6,3.6,3.6,3.6h10.4l-14.1-14.1L794.8,333.6L794.8,333.6z"/>
			<path class="st12" d="M783.3,368.8h3.6c-1.1,2.5-2.9,4.3-5.4,5.7c-2.7,1.6-6.1,2.3-10.2,2.3c-3.9,0-7.3-0.7-10-2
				c-2.7-1.4-5-3.2-6.3-5.9c-1.4-2.5-2-5.4-2-8.4c0-3.4,0.7-6.3,2.3-9.3c1.6-2.9,3.6-5,6.3-6.3c2.7-1.4,5.9-2,9.3-2
				c2.9,0,5.7,0.7,7.9,1.8c2.3,1.1,4.1,2.7,5.2,5c1.1,2,1.8,4.5,1.8,7c0,2.9-0.9,5.7-2.7,8.2c-2.3,3.2-5.2,4.5-8.8,4.5
				c-0.9,0-1.8-0.2-2.3-0.5c-0.5-0.5-0.9-0.9-0.9-1.6c-1.4,1.4-2.9,2-4.8,2c-2,0-3.6-0.7-4.8-2c-1.4-1.4-2-3.2-2-5.4
				c0-2.7,0.7-5.2,2.3-7.7c1.8-2.7,4.3-4.1,7.3-4.1c2,0,3.6,0.9,4.8,2.5l0.5-2h4.8l-2.7,12.7c-0.2,0.9-0.2,1.4-0.2,1.6
				c0,0.2,0,0.5,0.2,0.7c0.2,0.2,0.2,0.2,0.5,0.2c0.5,0,1.4-0.5,2.3-1.1c1.1-0.9,2.3-2,2.9-3.6c0.7-1.6,1.1-3.2,1.1-4.8
				c0-2.9-1.1-5.4-3.2-7.3c-2-2-5-2.9-8.8-2.9c-3.2,0-5.9,0.7-8.2,2s-3.9,3.2-5,5.4s-1.6,4.8-1.6,7.5c0,2.5,0.7,4.8,1.8,6.8
				c1.4,2,2.9,3.6,5.2,4.5s4.8,1.4,7.7,1.4c2.7,0,5.2-0.5,7.3-1.1C780.3,371.5,781.9,370.4,783.3,368.8z M764,361.5
				c0,1.6,0.2,2.5,0.9,3.4c0.7,0.7,1.4,1.1,2.3,1.1c0.7,0,1.4-0.2,1.8-0.5c0.5-0.2,0.9-0.7,1.4-1.1c0.7-0.7,1.1-1.8,1.6-3.2
				c0.5-1.4,0.7-2.7,0.7-3.9c0-1.4-0.2-2.3-0.9-3.2c-0.7-0.7-1.4-1.1-2.3-1.1s-2,0.5-2.7,1.1c-0.9,0.7-1.6,1.8-2,3.4
				C764.2,359,764,360.4,764,361.5z"/>
		</g>
	</g>
</g>
<g id="Capa_3">
	<g>
		<path class="st3" d="M8,0h193.6c4.4,0,8,3.6,8,8v362.3c0,4.4-3.6,8-8,8H8c-4.4,0-8-3.6-8-8V8C0,3.6,3.6,0,8,0C8,0,8,0,8,0z"/>
		<path class="st4" d="M16.5,5.1h176.6c7.5,0,13.6,6.1,13.6,13.6v340.7c0,7.5-6.1,13.6-13.6,13.6H16.5c-7.5,0-13.6-6.1-13.6-13.6
			V18.7C2.8,11.2,8.9,5.1,16.5,5.1z"/>
		<path class="st5" d="M156,14.3c-1.2,8.1-8.1,14-16.3,14.1l-70.4,0c-8.2,0-15.1-6-16.3-14.1l-37.3,0c-4.3,0-7.7,3.5-7.7,7.7
			c0,0,0,0,0,0l0,334c0,4.3,3.5,7.7,7.7,7.7c0,0,0,0,0,0l178.2,0c4.3,0,7.7-3.5,7.7-7.7l0,0l0-334c0-4.3-3.5-7.7-7.7-7.7h0L156,14.3
			z"/>
		<path class="st6" d="M83.8,18.7h42.6c0.8,0,1.4,0.6,1.4,1.4v0c0,0.8-0.6,1.4-1.4,1.4H83.8c-0.8,0-1.4-0.6-1.4-1.4v0
			C82.3,19.4,83,18.7,83.8,18.7z"/>
		<circle class="st6" cx="137.4" cy="19.9" r="1.7"/>
		<g>
			<circle class="st13" cx="105.1" cy="161.7" r="57"/>
			<path class="st14" d="M105.1,161.7c10.5,0,19-8.5,19-19s-8.5-19-19-19s-19,8.5-19,19S94.6,161.7,105.1,161.7z M105.1,171.2
				c-12.7,0-38,6.4-38,19v9.5H143v-9.5C143,177.5,117.7,171.2,105.1,171.2z"/>
		</g>
		<g>
			<path class="st15" d="M144.7,253.1H65.5c-0.8,0-1.5-0.7-1.5-1.5v0c0-0.8,0.7-1.5,1.5-1.5h79.2c0.8,0,1.5,0.7,1.5,1.5v0
				C146.1,252.5,145.5,253.1,144.7,253.1z"/>
			<path class="st15" d="M127.1,265.8H83c-0.6,0-1.1-0.5-1.1-1.1v-0.7c0-0.6,0.5-1.1,1.1-1.1h44c0.6,0,1.1,0.5,1.1,1.1v0.7
				C128.2,265.3,127.7,265.8,127.1,265.8z"/>
		</g>
	</g>
</g>
</svg>
