<?xml version="1.0" encoding="utf-8"?>
<!-- Generator: Adobe Illustrator 25.4.1, SVG Export Plug-In . SVG Version: 6.00 Build 0)  -->
<svg version="1.1" id="Capa_1" xmlns="http://www.w3.org/2000/svg" xmlns:xlink="http://www.w3.org/1999/xlink" x="0px" y="0px"
	 viewBox="0 0 878 720.4" style="enable-background:new 0 0 878 720.4;" xml:space="preserve">
<style type="text/css">
	.st0{fill:none;stroke:#0C57FB;stroke-width:2.7916;stroke-miterlimit:10;stroke-dasharray:16.7497;}
	.st1{fill:none;stroke:#0C57FB;stroke-width:2.572;stroke-miterlimit:10;stroke-dasharray:15.4322;}
	.st2{opacity:0.5;fill:#37E0BA;enable-background:new    ;}
	.st3{fill:#E3EAF0;}
	.st4{fill:#FFFFFF;}
	.st5{fill:#F4F7FB;}
	.st6{fill:#DBDBDB;}
	.st7{fill:#FFD15C;}
	.st8{fill:#F8B64C;}
	.st9{fill:#40596B;}
	.st10{fill:#F2F2F2;}
	.st11{fill:#CDD6E0;}
	.st12{fill:#FF7058;}
	.st13{fill:#E6EEFE;}
	.st14{fill:#0C57FB;}
	.st15{fill:#2B2B2B;}
	.st16{fill:#2D3277;}
	.st17{fill:#FFE600;}
</style>
<g id="a37f41ca-a9f0-4efa-9f9e-7b2dee25605c">
	<polyline class="st0" points="233,40.7 772.6,40.7 772.6,142.7 	"/>
	<polyline class="st1" points="104.5,438.4 104.5,626.4 772.6,626.4 772.6,594.4 	"/>
	<rect x="205.5" y="513.4" class="st2" width="9" height="9"/>
	<rect x="453.5" y="58.4" class="st2" width="9" height="9"/>
	<rect x="115.5" y="450.4" class="st2" width="9" height="9"/>
	<rect x="196.5" y="675.4" class="st2" width="9" height="9"/>
	<rect x="421.5" y="711.4" class="st2" width="9" height="9"/>
	<rect x="309.5" y="310.4" class="st2" width="9" height="9"/>
	<rect x="560.5" y="590.4" class="st2" width="9" height="9"/>
	<rect x="628.5" y="99.4" class="st2" width="9" height="9"/>
	<rect x="604.5" y="460.4" class="st2" width="9" height="9"/>
	<rect x="514.5" y="397.4" class="st2" width="9" height="9"/>
	<rect x="748.5" y="257.4" class="st2" width="9" height="9"/>
</g>
<g id="Capa_2_00000148663475052175619110000014284085590176951466_">
	<g>
		<path class="st3" d="M672.8,175.2h193.6c4.4,0,8,3.6,8,8l0,0v362.3c0,4.4-3.6,8-8,8l0,0H672.8c-4.4,0-8-3.6-8-8V183.2
			C664.9,178.8,668.4,175.2,672.8,175.2L672.8,175.2z"/>
		<path class="st4" d="M681.3,180.3h176.6c7.5,0,13.6,6.1,13.6,13.6v340.7c0,7.5-6.1,13.6-13.6,13.6H681.3
			c-7.5,0-13.6-6.1-13.6-13.6V194C667.7,186.4,673.8,180.3,681.3,180.3z"/>
		<path class="st5" d="M820.8,189.6c-1.2,8.1-8.1,14-16.3,14.1h-70.4c-8.2,0-15.1-6-16.3-14.1h-37.3c-4.3,0-7.7,3.5-7.7,7.7l0,0v334
			c0,4.3,3.5,7.7,7.7,7.7l0,0h178.2c4.3,0,7.7-3.5,7.7-7.7v-334c0-4.3-3.5-7.7-7.7-7.7l0,0L820.8,189.6z"/>
		<path class="st6" d="M748.6,194h42.6c0.8,0,1.4,0.6,1.4,1.4l0,0c0,0.8-0.6,1.4-1.4,1.4h-42.6c-0.8,0-1.4-0.6-1.4-1.4l0,0
			C747.2,194.6,747.8,194,748.6,194z"/>
		<circle class="st6" cx="802.3" cy="195.1" r="1.7"/>
		<g>
			<path class="st7" d="M824.3,424.8c0,1.4-0.5,2.5-1.4,3.4c-0.9,0.7-1.8,1.1-3.2,1.1H720c-1.1,0-2.3-0.5-3.2-1.1
				c-0.9-0.9-1.4-2-1.4-3.4v-66.4h108.8v66.4H824.3z"/>
			<path class="st8" d="M823,428.2c-0.9,0.7-1.8,1.1-3.2,1.1H720c-1.1,0-2.3-0.5-3.2-1.1l53.1-45.6L823,428.2z"/>
			<path class="st9" d="M824.3,358.3l-15.4,11.1l-36,25.8c-1.8,1.4-4.3,1.4-6.1,0L731,369.4l-15.4-11.1l15.4-11.1l33.6-24l2.5-1.8
				c1.8-1.4,4.3-1.4,6.1,0l2.5,1.8l16.1,11.6l7.9,5.7l9.3,6.8L824.3,358.3z"/>
			<path class="st10" d="M808.9,337.3v32.2l-36,25.8c-1.8,1.4-4.3,1.4-6.1,0L731,369.5v-41.7c0-2.5,2-4.5,4.5-4.5h59.2L808.9,337.3z
				"/>
			<path class="st11" d="M794.8,333.6c0,2,1.6,3.6,3.6,3.6h10.4l-14.1-14.1L794.8,333.6L794.8,333.6z"/>
			<path class="st12" d="M783.3,368.8h3.6c-1.1,2.5-2.9,4.3-5.4,5.7c-2.7,1.6-6.1,2.3-10.2,2.3c-3.9,0-7.3-0.7-10-2
				c-2.7-1.4-5-3.2-6.3-5.9c-1.4-2.5-2-5.4-2-8.4c0-3.4,0.7-6.3,2.3-9.3c1.6-2.9,3.6-5,6.3-6.3c2.7-1.4,5.9-2,9.3-2
				c2.9,0,5.7,0.7,7.9,1.8c2.3,1.1,4.1,2.7,5.2,5c1.1,2,1.8,4.5,1.8,7c0,2.9-0.9,5.7-2.7,8.2c-2.3,3.2-5.2,4.5-8.8,4.5
				c-0.9,0-1.8-0.2-2.3-0.5c-0.5-0.5-0.9-0.9-0.9-1.6c-1.4,1.4-2.9,2-4.8,2c-2,0-3.6-0.7-4.8-2c-1.4-1.4-2-3.2-2-5.4
				c0-2.7,0.7-5.2,2.3-7.7c1.8-2.7,4.3-4.1,7.3-4.1c2,0,3.6,0.9,4.8,2.5l0.5-2h4.8l-2.7,12.7c-0.2,0.9-0.2,1.4-0.2,1.6
				s0,0.5,0.2,0.7s0.2,0.2,0.5,0.2c0.5,0,1.4-0.5,2.3-1.1c1.1-0.9,2.3-2,2.9-3.6c0.7-1.6,1.1-3.2,1.1-4.8c0-2.9-1.1-5.4-3.2-7.3
				c-2-2-5-2.9-8.8-2.9c-3.2,0-5.9,0.7-8.2,2s-3.9,3.2-5,5.4s-1.6,4.8-1.6,7.5c0,2.5,0.7,4.8,1.8,6.8c1.4,2,2.9,3.6,5.2,4.5
				s4.8,1.4,7.7,1.4c2.7,0,5.2-0.5,7.3-1.1C780.3,371.5,781.9,370.4,783.3,368.8z M764,361.5c0,1.6,0.2,2.5,0.9,3.4
				c0.7,0.7,1.4,1.1,2.3,1.1c0.7,0,1.4-0.2,1.8-0.5c0.5-0.2,0.9-0.7,1.4-1.1c0.7-0.7,1.1-1.8,1.6-3.2c0.5-1.4,0.7-2.7,0.7-3.9
				c0-1.4-0.2-2.3-0.9-3.2c-0.7-0.7-1.4-1.1-2.3-1.1s-2,0.5-2.7,1.1c-0.9,0.7-1.6,1.8-2,3.4C764.2,359,764,360.4,764,361.5z"/>
		</g>
	</g>
</g>
<g id="Capa_3">
	<g>
		<path class="st3" d="M8,0h193.6c4.4,0,8,3.6,8,8v362.3c0,4.4-3.6,8-8,8H8c-4.4,0-8-3.6-8-8V8C0,3.6,3.6,0,8,0L8,0z"/>
		<path class="st4" d="M16.5,5.1h176.6c7.5,0,13.6,6.1,13.6,13.6v340.7c0,7.5-6.1,13.6-13.6,13.6H16.5c-7.5,0-13.6-6.1-13.6-13.6
			V18.7C2.8,11.2,8.9,5.1,16.5,5.1z"/>
		<path class="st5" d="M156,14.3c-1.2,8.1-8.1,14-16.3,14.1H69.3c-8.2,0-15.1-6-16.3-14.1H15.7C11.4,14.3,8,17.8,8,22l0,0v334
			c0,4.3,3.5,7.7,7.7,7.7l0,0h178.2c4.3,0,7.7-3.5,7.7-7.7l0,0V22c0-4.3-3.5-7.7-7.7-7.7l0,0H156z"/>
		<path class="st6" d="M83.8,18.7h42.6c0.8,0,1.4,0.6,1.4,1.4l0,0c0,0.8-0.6,1.4-1.4,1.4H83.8c-0.8,0-1.4-0.6-1.4-1.4l0,0
			C82.3,19.4,83,18.7,83.8,18.7z"/>
		<circle class="st6" cx="137.4" cy="19.9" r="1.7"/>
		<g>
			<circle class="st13" cx="105.1" cy="161.7" r="57"/>
			<path class="st14" d="M105.1,161.7c10.5,0,19-8.5,19-19s-8.5-19-19-19s-19,8.5-19,19S94.6,161.7,105.1,161.7z M105.1,171.2
				c-12.7,0-38,6.4-38,19v9.5H143v-9.5C143,177.5,117.7,171.2,105.1,171.2z"/>
		</g>
		<g>
			<path class="st15" d="M144.7,253.1H65.5c-0.8,0-1.5-0.7-1.5-1.5l0,0c0-0.8,0.7-1.5,1.5-1.5h79.2c0.8,0,1.5,0.7,1.5,1.5l0,0
				C146.1,252.5,145.5,253.1,144.7,253.1z"/>
			<path class="st15" d="M127.1,265.8H83c-0.6,0-1.1-0.5-1.1-1.1V264c0-0.6,0.5-1.1,1.1-1.1h44c0.6,0,1.1,0.5,1.1,1.1v0.7
				C128.2,265.3,127.7,265.8,127.1,265.8z"/>
		</g>
	</g>
</g>
<path class="st16" d="M449.5,316.7h1.5v29.9h-5.7v-26.3C445.3,319.5,447.1,316.7,449.5,316.7z M480.5,323.3c-2.8,0-4.9,1.2-6.4,3.5
	v-10.2h-0.6c-2.8,0-4.3,1.5-5,2.8v-0.2v17.2c0,6.7,3.5,10.2,10.6,10.2c7.1-0.1,10.5-4,10.5-11.4
	C489.5,327.4,486.5,323.5,480.5,323.3L480.5,323.3z M478.8,341.7c-3.2,0-4.8-2.4-4.7-6.8c0.2-4.4,1.7-6.5,4.8-6.5
	c3.1,0,4.6,2.1,4.8,6.5C483.7,339.5,482,341.7,478.8,341.7z M492.8,334.9c0.2-7.3,3.7-11.3,11.3-11.3h1.7v5.9h-2.7
	c-3.2,0-4.6,2-4.6,5.3v11.8h-5.8L492.8,334.9z M514.8,340.7c1,0.9,2.2,1.3,4,1.3c1.2,0,2.2-0.3,3.1-1s1.4-1.3,1.6-1.9h5.3
	c-0.9,2.7-2.1,4.5-4,5.7c-1.8,1.2-3.8,1.7-6.4,1.7c-1.7,0-3.3-0.3-4.7-0.9c-1.4-0.5-2.6-1.4-3.5-2.4c-1-1.1-1.7-2.2-2.2-3.6
	c-0.5-1.4-0.7-3-0.7-4.7c0-1.6,0.3-3.2,0.9-4.6c0.5-1.4,1.3-2.7,2.2-3.6c1-1.1,2.1-1.8,3.5-2.5c1.4-0.6,2.9-0.9,4.6-0.9
	c1.8,0,3.5,0.3,4.9,1.1s2.6,1.7,3.4,2.9s1.5,2.6,1.9,4.2c0.4,1.5,0.5,3.2,0.4,4.9h-15.9C513.4,338.5,514,339.9,514.8,340.7
	L514.8,340.7z M521.7,329.2c-0.7-0.7-1.8-1.2-3.3-1.2c-1,0-1.8,0.2-2.5,0.5s-1.2,0.7-1.5,1.2c-0.4,0.5-0.6,1-0.9,1.5
	c-0.2,0.5-0.2,1.1-0.3,1.5h9.8C522.9,331.1,522.4,329.9,521.7,329.2L521.7,329.2z M457.1,316.7h5.7v5.1h-5.7V316.7z M457.1,324.4
	h5.7v22.1h-5.7V324.4z M560.5,304.8c-1,1.1-2.2,1.7-3.8,1.7c-1.6,0-2.9-0.6-3.9-1.7c-1-1.1-1.3-2.9-1.3-5c0-2.2,0.4-3.9,1.3-4.9
	c1-1.1,2.2-1.7,3.9-1.7c1.6,0,2.9,0.6,3.8,1.7c1,1.1,1.3,2.9,1.3,4.9S561.4,303.5,560.5,304.8z M565,291.6c-1.7-2.2-4.6-3.5-8.3-3.5
	c-3.6,0-6.6,1.1-8.3,3.5c-1.7,2.2-2.8,5-2.8,8.1c0,3.2,1,6,2.8,8.1c1.7,2.2,4.6,3.4,8.3,3.4c3.6,0,6.6-1.1,8.3-3.4
	c1.7-2.2,2.8-5,2.8-8.1C567.9,296.7,566.9,293.9,565,291.6 M537.2,304.8c-0.7,1.1-2,1.7-3.6,1.7c-1.6,0-2.9-0.6-3.5-1.7
	c-0.7-1.3-1.1-2.9-1.1-5c0-1.9,0.3-3.4,1.1-4.6c0.7-1.3,1.9-1.9,3.6-1.9c1.1,0,2,0.3,2.9,1c1.3,1.1,2,3.2,2,6
	C538.2,302.1,538,303.7,537.2,304.8L537.2,304.8z M543.8,281.5c0,0-5.8-0.6-5.8,4v6.1c-0.6-1-1.4-1.7-2.6-2.5
	c-1-0.6-2.2-0.7-3.5-0.7c-2.9,0-5.1,1.1-7,3.2c-1.7,2-2.6,5.1-2.6,9c0,3.2,0.7,6,2.6,7.8c1.7,2,5.1,2.9,8.1,2.9
	c10.6,0,10.4-9,10.4-9L543.8,281.5z M515.4,302.1c0,1.9-0.6,3.2-1.6,4c-1.1,0.6-2.2,1.1-3.4,1.1c-0.7,0-1.4-0.1-1.9-0.6
	c-0.5-0.5-0.7-1.1-0.7-2c0-1.1,0.4-1.9,1.3-2.5c0.4-0.3,1.4-0.6,2.6-0.7l1.3-0.3c0.6-0.1,1.1-0.3,1.6-0.3c0.3-0.1,0.7-0.3,1.1-0.4
	L515.4,302.1z M518.2,289.6c-1.9-1-4-1.4-6.4-1.4c-3.6,0-6.3,1-7.8,2.9c-1,1.3-1.4,2.8-1.6,4.6h5.5c0.1-0.7,0.4-1.4,0.7-1.9
	c0.6-0.6,1.6-1,2.9-1s2,0.1,2.8,0.4c0.6,0.3,1,1,1,1.9c0,0.7-0.4,1.3-1.3,1.6c-0.4,0.1-1.3,0.3-2.2,0.4l-1.9,0.1
	c-2.2,0.3-3.8,0.7-5,1.4c-2,1.1-3.1,3.2-3.1,5.8c0,2,0.6,3.6,1.9,4.8c1.3,1.1,2.9,1.6,4.9,1.7c12.5,0.4,12.4-6.6,12.4-8v-8.1
	C521,292.5,520.2,290.6,518.2,289.6 M489.9,293.2c1.4,0,2.5,0.4,3.2,1.3c0.4,0.6,0.7,1.4,0.7,2.2h6.1c-0.3-3.1-1.4-5.3-3.2-6.4
	c-1.7-1.3-4.2-1.7-7.1-1.7c-3.4,0-6.1,1-8,3.1c-1.9,2.1-2.9,5-2.9,8.7c0,3.4,0.7,6,2.6,8c1.7,2,4.5,3.1,8.1,3.1
	c3.6,0,6.4-1.3,8.3-3.6c1.1-1.6,1.7-3.2,1.9-5h-6.1c-0.1,1.1-0.4,2-1.1,2.8c-0.6,0.6-1.6,1.1-3.1,1.1c-1.9,0-3.4-1-4-2.8
	c-0.3-1-0.6-2.2-0.6-3.9c0-1.6,0.1-3.1,0.6-4C486.5,294.1,487.8,293.2,489.9,293.2 M477.2,288.3c-12.7,0-11.9,11.2-11.9,11.2v11.3
	h5.8v-10.6c0-1.7,0.1-3.1,0.6-3.8c0.7-1.4,2.2-2.2,4.6-2.2h0.6c0.3,0,0.6,0,1,0.1v-5.8h-0.4C477.4,288.3,477.4,288.3,477.2,288.3
	 M448.5,294.2c0.7-0.7,1.9-1.3,3.4-1.3c1.3,0,2.5,0.3,3.4,1.1c1,0.7,1.4,1.9,1.4,3.4h-9.8C447.2,296.2,447.7,295.1,448.5,294.2z
	 M456.2,304.8c-0.1,0.3-0.4,0.6-0.7,0.7c-0.7,0.6-1.9,0.7-3.2,0.7c-1.3,0-2.2-0.1-3.1-0.7c-1.4-0.7-2.2-2.5-2.2-4.5h15.8
	c0-1.9,0-3.4-0.1-4.3c-0.3-1.7-0.7-3.2-1.7-4.5c-1-1.4-2.2-2.6-3.6-3.2c-1.4-0.6-3.2-1-5.1-1c-3.2,0-5.8,1-7.7,3.1
	c-1.9,2-3.1,4.9-3.1,8.7c0,4,1.1,7,3.4,8.7c2.2,1.7,4.8,2.8,7.7,2.8c3.5,0,6.3-1.1,8.1-3.2c1.1-1.1,1.7-2.2,1.9-3.4L456.2,304.8z
	 M438.9,310.8h-5.3v-13.2c0-1.3-0.3-4-3.8-4c-2.2,0-4,1.6-4,4v13.2h-5.3v-13.2c0-1.3-0.3-4-3.9-4c-2.2,0-3.8,1.6-3.8,4v13.2h-5.3
	v-13c0-5.5,3.5-9.6,9.1-9.6c2.8,0,5,1.1,6.6,3.1c1.6-1.9,3.9-3.1,6.6-3.1c5.8,0,9.1,4,9.1,9.6L438.9,310.8z M390.9,315.6
	c0-18.3-22.8-33.3-50.9-33.3c-28.1,0-50.9,15-50.9,33.3v1.9c0,19.5,19.9,35.2,50.9,35.2c31.1,0,50.9-15.7,50.9-35.2V315.6z"/>
<path class="st17" d="M389.1,317.1c0,17.2-21.9,31.2-48.9,31.2c-27,0-48.9-14-48.9-31.2s21.9-31.2,48.9-31.2
	C367.2,285.9,389.1,299.9,389.1,317.1z"/>
<g>
	<path class="st4" d="M324,307.1c0,0-0.5,0.5-0.2,1c0.7,1,3.1,1.5,5.6,1c1.4-0.3,3.3-1.8,5-3.2c1.9-1.5,3.8-3.1,5.8-3.6
		c2-0.6,3.3-0.3,4.2-0.1c1,0.3,2,1,3.9,2.2c3.3,2.5,16.8,14.2,19.1,16.3c1.8-0.9,10.2-4.4,21.5-7c-1-6-4.6-11.6-10.2-16
		c-7.7,3.2-17.2,4.9-26.5,0.4c0,0-5-2.4-10.1-2.2c-7.4,0.2-10.5,3.3-13.9,6.7L324,307.1z"/>
	<path class="st4" d="M366.7,321.9c-0.1-0.1-15.8-13.8-19.4-16.5c-2-1.5-3.2-1.9-4.4-2.1c-0.6-0.1-1.5,0-2.1,0.2
		c-1.6,0.4-3.9,1.9-5.8,3.4c-2,1.6-3.9,3.1-5.6,3.4c-2.2,0.5-4.9-0.1-6.1-1c-0.5-0.3-0.9-0.7-1.1-1.2c-0.4-1.1,0.4-1.9,0.5-2
		l4.3-4.7l1.5-1.5c-1.4,0.2-2.7,0.5-4,0.9c-1.6,0.4-3.1,0.9-4.6,0.9c-0.6,0-4.1-0.5-4.7-0.7c-4-1.1-7.4-2.1-12.5-4.5
		c-6.1,4.6-10.3,10.3-11.4,16.6c0.9,0.2,2.4,0.6,2.9,0.7c13.9,3.1,18.2,6.3,19,7c0.9-1,2-1.5,3.4-1.5c1.5,0,2.9,0.7,3.7,1.9
		c0.7-0.6,1.9-1.2,3.3-1.2c0.6,0,1.3,0.1,2,0.3c1.6,0.5,2.4,1.6,2.8,2.6c0.5-0.2,1.2-0.4,1.9-0.4c0.7,0,1.5,0.2,2.4,0.5
		c2.6,1.1,3,3.6,2.8,5.6h0.5c3.1,0,5.6,2.5,5.6,5.6c0,1-0.2,1.8-0.6,2.6c0.9,0.4,2.9,1.5,4.8,1.3c1.5-0.2,2-0.6,2.2-1
		c0.1-0.2,0.3-0.4,0.1-0.6l-4-4.4c0,0-0.6-0.6-0.4-0.9s0.6,0.1,1,0.3c2,1.7,4.4,4.2,4.4,4.2s0.2,0.3,1.1,0.5c0.7,0.1,2.1,0,3.1-0.7
		c0.2-0.2,0.5-0.4,0.6-0.6c1-1.3-0.1-2.6-0.1-2.6l-4.6-5.1c0,0-0.6-0.6-0.4-0.9c0.2-0.2,0.6,0.1,1,0.3c1.5,1.2,3.5,3.3,5.5,5.2
		c0.4,0.3,2.1,1.4,4.4-0.1c1.4-1,1.7-2,1.6-2.9c-0.1-1.1-1-1.9-1-1.9l-6.2-6.3c0,0-0.6-0.5-0.4-0.9c0.2-0.2,0.6,0.1,1,0.3
		c2,1.7,7.4,6.6,7.4,6.6c0.1,0,1.9,1.4,4.3-0.1c0.9-0.5,1.4-1.3,1.4-2.2C367.9,322.8,366.7,321.9,366.7,321.9z"/>
	<path class="st4" d="M336.5,329.9c-1,0-2,0.5-2.1,0.5c-0.1,0,0-0.4,0.1-0.6c0.1-0.2,1.4-4.1-1.7-5.5c-2.4-1.1-3.8,0.1-4.3,0.6
		c-0.1,0.1-0.2,0.1-0.2,0c0-0.6-0.3-2.6-2.5-3.2c-3-1-4.8,1.2-5.3,1.9c-0.2-1.7-1.6-3-3.4-3c-1.9,0-3.4,1.5-3.4,3.4s1.5,3.4,3.4,3.4
		c1,0,1.7-0.3,2.4-1v0.1c-0.1,0.9-0.4,4,2.8,5.1c1.3,0.5,2.4,0.1,3.3-0.5c0.3-0.2,0.3-0.1,0.3,0.1c-0.1,0.7,0,2.5,2.5,3.4
		c1.8,0.7,2.9,0,3.5-0.6c0.3-0.3,0.4-0.2,0.4,0.2c0.1,2.2,2,4.1,4.3,4.1c2.4,0,4.3-1.9,4.3-4.3C340.7,331.8,338.8,329.9,336.5,329.9
		L336.5,329.9z"/>
</g>
<path class="st16" d="M367.4,320.2c-4.8-4.2-15.9-13.9-19-16.1c-1.7-1.3-2.9-2-4-2.2c-0.4-0.1-1.1-0.3-1.9-0.3
	c-0.7,0-1.6,0.1-2.5,0.4c-1.9,0.6-3.8,2.1-5.8,3.6l-0.1,0.1c-1.7,1.4-3.5,2.8-4.9,3.1c-0.6,0.1-1.2,0.2-1.8,0.2
	c-1.5,0-2.9-0.4-3.4-1.1c-0.1-0.1,0-0.3,0.2-0.5l4.3-4.6c3.3-3.3,6.4-6.4,13.7-6.6h0.3c4.5,0,9,2,9.5,2.2c4.3,2,8.6,3.1,12.9,3.1
	c4.6,0,9.3-1.2,14.2-3.4c-0.5-0.4-1.2-1-1.7-1.4c-4.4,1.9-8.4,2.8-12.5,2.8c-4.1,0-8.1-1-12.1-2.9c-0.2-0.1-5.1-2.5-10.4-2.5H342
	c-6.1,0.1-9.5,2.2-11.8,4.2c-2.2,0-4.2,0.6-5.9,1.1c-1.5,0.4-2.9,0.7-4.2,0.7h-1.6c-1.5,0-9-1.8-14.9-4.2c-0.6,0.4-1.2,0.9-1.8,1.3
	c6.2,2.6,13.8,4.5,16.1,4.7c0.6,0,1.4,0.1,2.1,0.1c1.6,0,3.1-0.4,4.7-0.9c1-0.2,1.9-0.5,2.9-0.7l-0.9,0.9l-4.3,4.7
	c-0.3,0.3-1.1,1.3-0.6,2.4c0.2,0.4,0.6,0.9,1.2,1.3c1.1,0.6,2.9,1.2,4.6,1.2c0.6,0,1.3-0.1,1.8-0.2c1.8-0.4,3.7-1.9,5.7-3.5
	c1.6-1.3,3.9-2.9,5.6-3.4c0.5-0.1,1.1-0.2,1.6-0.2h0.4c1.2,0.1,2.2,0.5,4.3,2c3.5,2.7,19.3,16.4,19.4,16.5c0,0,1,0.9,1,2.4
	c0,0.7-0.5,1.5-1.3,2c-0.6,0.4-1.4,0.6-2,0.6c-1.1,0-1.8-0.5-1.8-0.5s-5.5-4.9-7.4-6.6c-0.3-0.3-0.6-0.5-1-0.5
	c-0.2,0-0.3,0.1-0.4,0.2c-0.3,0.4,0,1,0.4,1.3l6.3,6.3c0,0,0.7,0.7,0.9,1.7c0,1.1-0.4,1.9-1.5,2.6c-0.7,0.5-1.5,0.7-2.2,0.7
	c-1,0-1.6-0.4-1.8-0.5l-1-0.9c-1.6-1.6-3.3-3.3-4.6-4.3c-0.3-0.2-0.6-0.5-1-0.5c-0.1,0-0.3,0-0.4,0.2c-0.1,0.1-0.2,0.4,0.1,1
	c0.1,0.2,0.3,0.3,0.3,0.3l4.6,5.1c0,0,1,1.2,0.1,2.1l-0.2,0.2l-0.4,0.4c-0.7,0.6-1.8,0.7-2.2,0.7h-0.6c-0.4-0.1-0.7-0.2-1-0.4
	c-0.2-0.3-2.6-2.6-4.5-4.2c-0.2-0.2-0.5-0.4-0.9-0.4c-0.1,0-0.3,0.1-0.4,0.2c-0.3,0.4,0.2,1.1,0.4,1.3l4,4.3c0,0,0,0.1-0.1,0.3
	c-0.1,0.2-0.6,0.6-2,0.9h-0.5c-1.5,0-3-0.7-3.9-1.2c0.3-0.7,0.5-1.6,0.5-2.5c0-3.2-2.6-5.8-5.8-5.8h-0.2c0.1-1.5-0.1-4.3-3-5.5
	c-0.9-0.3-1.6-0.5-2.5-0.5c-0.6,0-1.2,0.1-1.8,0.3c-0.6-1.2-1.6-2-2.9-2.5c-0.7-0.2-1.4-0.3-2.1-0.3c-1.2,0-2.2,0.3-3.2,1.1
	c-0.9-1.2-2.4-1.8-3.9-1.8c-1.3,0-2.6,0.5-3.4,1.4c-1.2-1-6-4-18.9-7c-0.6-0.1-2-0.5-2.9-0.9c-0.1,0.6-0.2,1.4-0.3,2.1
	c0,0,2.4,0.5,2.9,0.6c13.2,2.9,17.5,6,18.3,6.5c-0.2,0.6-0.3,1.3-0.3,1.9c0,2.8,2.2,4.9,4.9,4.9c0.3,0,0.6,0,1-0.1
	c0.4,2,1.7,3.5,3.7,4.3c0.6,0.2,1.2,0.3,1.7,0.3c0.3,0,0.7,0,1.2-0.1c0.3,1,1.2,2.1,3.1,2.9c0.6,0.3,1.3,0.4,1.9,0.4
	c0.5,0,1.1-0.1,1.5-0.3c0.9,2.1,3,3.6,5.3,3.6c1.6,0,3.1-0.6,4.2-1.8c1,0.5,2.9,1.5,4.9,1.5h0.7c2-0.2,2.9-1.1,3.3-1.6
	c0.1-0.1,0.1-0.2,0.2-0.3c0.4,0.1,1,0.2,1.6,0.2c1.1,0,2.1-0.3,3.2-1.2c1.1-0.7,1.8-1.8,1.8-2.8c0.3,0.1,0.7,0.1,1.1,0.1
	c1.1,0,2.2-0.3,3.3-1.1c2-1.3,2.4-3.1,2.4-4.2c0.3,0.1,0.7,0.1,1.1,0.1c1.1,0,2.1-0.3,3.1-1c1.3-0.9,2-2,2.1-3.4
	c0.1-1-0.2-1.9-0.6-2.8c3.4-1.5,11.1-4.3,20.3-6.4c0-0.7-0.1-1.4-0.3-2.1C377.6,315.7,369.4,319.2,367.4,320.2L367.4,320.2z
	 M336.5,338.1c-2.1,0-3.8-1.7-4-3.9c0-0.2,0-0.6-0.4-0.6c-0.2,0-0.3,0.1-0.5,0.2c-0.4,0.4-1.1,0.9-1.9,0.9c-0.4,0-0.9-0.1-1.3-0.3
	c-2.2-1-2.4-2.5-2.2-3.1c0-0.2,0-0.3-0.1-0.4l-0.1-0.1h-0.1c-0.1,0-0.2,0-0.4,0.2c-0.6,0.4-1.3,0.6-1.9,0.6c-0.3,0-0.7-0.1-1.1-0.2
	c-3-1.2-2.8-4-2.6-4.8c0-0.2,0-0.3-0.1-0.4l-0.2-0.2l-0.2,0.2c-0.6,0.5-1.4,0.9-2.1,0.9c-1.7,0-3.1-1.4-3.1-3.1s1.4-3.1,3.1-3.1
	c1.5,0,2.9,1.2,3.1,2.7l0.1,0.9l0.4-0.7c0-0.1,1.3-2,3.6-1.9c0.4,0,0.9,0.1,1.4,0.2c1.8,0.5,2.1,2.2,2.1,2.9c0,0.4,0.3,0.4,0.3,0.4
	c0.1,0,0.3-0.1,0.3-0.2c0.3-0.3,1.1-1,2.2-1c0.5,0,1.1,0.1,1.7,0.4c2.9,1.3,1.6,4.9,1.6,5c-0.2,0.6-0.3,0.9,0,1.1h0.2
	c0.1,0,0.3,0,0.5-0.1c0.4-0.1,1-0.3,1.5-0.3c2.1,0,4,1.8,4,4C340.4,336.4,338.6,338.1,336.5,338.1L336.5,338.1z"/>
</svg>
