<?xml version="1.0" encoding="utf-8"?>
<!-- Generator: Adobe Illustrator 24.0.2, SVG Export Plug-In . SVG Version: 6.00 Build 0)  -->
<svg version="1.1" id="Capa_1" xmlns="http://www.w3.org/2000/svg" xmlns:xlink="http://www.w3.org/1999/xlink" x="0px" y="0px"
	 viewBox="0 0 878 720.4" style="enable-background:new 0 0 878 720.4;" xml:space="preserve">
<style type="text/css">
	.st0{fill:none;stroke:#0C57FB;stroke-width:2.7916;stroke-miterlimit:10;stroke-dasharray:16.7497;}
	.st1{fill:none;stroke:#0C57FB;stroke-width:2.572;stroke-miterlimit:10;stroke-dasharray:15.4322;}
	.st2{opacity:0.5;fill:#37E0BA;enable-background:new    ;}
	.st3{fill:#E3EAF0;}
	.st4{fill:#FFFFFF;}
	.st5{fill:#F4F7FB;}
	.st6{fill:#DBDBDB;}
	.st7{fill-rule:evenodd;clip-rule:evenodd;fill:#0C57FB;}
	.st8{fill:#E6EEFE;}
	.st9{fill:#0C57FB;}
	.st10{fill:#2B2B2B;}
</style>
<g id="a37f41ca-a9f0-4efa-9f9e-7b2dee25605c">
	<polyline class="st0" points="233,40.7 772.6,40.7 772.6,142.7 	"/>
	<polyline class="st1" points="104.5,438.4 104.5,626.4 772.6,626.4 772.6,594.4 	"/>
	<rect x="205.5" y="513.4" class="st2" width="9" height="9"/>
	<rect x="453.5" y="58.4" class="st2" width="9" height="9"/>
	<rect x="115.5" y="450.4" class="st2" width="9" height="9"/>
	<rect x="196.5" y="675.4" class="st2" width="9" height="9"/>
	<rect x="421.5" y="711.4" class="st2" width="9" height="9"/>
	<rect x="309.5" y="310.4" class="st2" width="9" height="9"/>
	<rect x="560.5" y="590.4" class="st2" width="9" height="9"/>
	<rect x="628.5" y="99.4" class="st2" width="9" height="9"/>
	<rect x="604.5" y="460.4" class="st2" width="9" height="9"/>
	<rect x="514.5" y="397.4" class="st2" width="9" height="9"/>
	<rect x="748.5" y="257.4" class="st2" width="9" height="9"/>
</g>
<g id="Capa_2_00000148663475052175619110000014284085590176951466_">
	<g>
		<path class="st3" d="M672.8,175.2h193.6c4.4,0,8,3.6,8,8l0,0v362.3c0,4.4-3.6,8-8,8l0,0H672.8c-4.4,0-8-3.6-8-8V183.2
			C664.9,178.8,668.4,175.2,672.8,175.2L672.8,175.2z"/>
		<path class="st4" d="M681.3,180.3h176.6c7.5,0,13.6,6.1,13.6,13.6v340.7c0,7.5-6.1,13.6-13.6,13.6H681.3
			c-7.5,0-13.6-6.1-13.6-13.6V194C667.7,186.4,673.8,180.3,681.3,180.3z"/>
		<path class="st5" d="M820.8,189.6c-1.2,8.1-8.1,14-16.3,14.1h-70.4c-8.2,0-15.1-6-16.3-14.1h-37.3c-4.3,0-7.7,3.5-7.7,7.7l0,0v334
			c0,4.3,3.5,7.7,7.7,7.7l0,0h178.2c4.3,0,7.7-3.5,7.7-7.7v-334c0-4.3-3.5-7.7-7.7-7.7l0,0L820.8,189.6z"/>
		<path class="st6" d="M748.6,194h42.6c0.8,0,1.4,0.6,1.4,1.4l0,0c0,0.8-0.6,1.4-1.4,1.4h-42.6c-0.8,0-1.4-0.6-1.4-1.4l0,0
			C747.2,194.6,747.8,194,748.6,194z"/>
		<circle class="st6" cx="802.3" cy="195.1" r="1.7"/>
		<g id="Page-1">
			<g id="Dribbble-Light-Preview" transform="translate(-60.000000, -8163.000000)">
				<g id="icons" transform="translate(56.000000, 160.000000)">
					<path id="next_x5F_arrow-_x5B__x23_8_x5D_" class="st7" d="M793,8381.6c-0.3,0.2-0.7,0.4-1.1,0.4h-36.2c-2.1,0-3.8-1.7-3.8-3.8
						v-22.9c0-2.1,1.7-3.8,3.8-3.8h36.2c0.4,0,0.8,0.1,1.1,0.4l19.8,14.9L793,8381.6z M817.4,8360.6l-21.4-16
						c-0.7-0.5-1.5-0.8-2.3-0.8h-41.9c-4.2,0-7.6,3.4-7.6,7.6v30.5c0,4.2,3.4,7.6,7.6,7.6h41.9c0.8,0,1.6-0.3,2.3-0.8l21.4-16
						C821.5,8369.8,821.5,8363.7,817.4,8360.6L817.4,8360.6z"/>
				</g>
			</g>
		</g>
	</g>
</g>
<g id="Capa_3">
	<g>
		<path class="st3" d="M8,0h193.6c4.4,0,8,3.6,8,8v362.3c0,4.4-3.6,8-8,8H8c-4.4,0-8-3.6-8-8V8C0,3.6,3.6,0,8,0L8,0z"/>
		<path class="st4" d="M16.5,5.1h176.6c7.5,0,13.6,6.1,13.6,13.6v340.7c0,7.5-6.1,13.6-13.6,13.6H16.5c-7.5,0-13.6-6.1-13.6-13.6
			V18.7C2.8,11.2,8.9,5.1,16.5,5.1z"/>
		<path class="st5" d="M156,14.3c-1.2,8.1-8.1,14-16.3,14.1H69.3c-8.2,0-15.1-6-16.3-14.1H15.7C11.4,14.3,8,17.8,8,22l0,0v334
			c0,4.3,3.5,7.7,7.7,7.7l0,0h178.2c4.3,0,7.7-3.5,7.7-7.7l0,0V22c0-4.3-3.5-7.7-7.7-7.7l0,0H156z"/>
		<path class="st6" d="M83.8,18.7h42.6c0.8,0,1.4,0.6,1.4,1.4l0,0c0,0.8-0.6,1.4-1.4,1.4H83.8c-0.8,0-1.4-0.6-1.4-1.4l0,0
			C82.3,19.4,83,18.7,83.8,18.7z"/>
		<circle class="st6" cx="137.4" cy="19.9" r="1.7"/>
		<g>
			<circle class="st8" cx="105.1" cy="161.7" r="57"/>
			<path class="st9" d="M105.1,161.7c10.5,0,19-8.5,19-19s-8.5-19-19-19s-19,8.5-19,19S94.6,161.7,105.1,161.7z M105.1,171.2
				c-12.7,0-38,6.4-38,19v9.5H143v-9.5C143,177.5,117.7,171.2,105.1,171.2z"/>
		</g>
		<g>
			<path class="st10" d="M144.7,253.1H65.5c-0.8,0-1.5-0.7-1.5-1.5l0,0c0-0.8,0.7-1.5,1.5-1.5h79.2c0.8,0,1.5,0.7,1.5,1.5l0,0
				C146.1,252.5,145.5,253.1,144.7,253.1z"/>
			<path class="st10" d="M127.1,265.8H83c-0.6,0-1.1-0.5-1.1-1.1V264c0-0.6,0.5-1.1,1.1-1.1h44c0.6,0,1.1,0.5,1.1,1.1v0.7
				C128.2,265.3,127.7,265.8,127.1,265.8z"/>
		</g>
	</g>
</g>
</svg>
